<svg width="57" height="56" viewBox="0 0 57 56" fill="none" xmlns="http://www.w3.org/2000/svg">
<g clip-path="url(#clip0_855_5991)">
<path d="M47.1667 31.7334V28C47.1667 27.0099 46.7734 26.0603 46.0732 25.3602C45.3731 24.66 44.4235 24.2667 43.4334 24.2667H6.10003C5.10989 24.2667 4.1603 24.66 3.46017 25.3602C2.76003 26.0603 2.3667 27.0099 2.3667 28V50.4C2.3667 51.3902 2.76003 52.3398 3.46017 53.0399C4.1603 53.74 5.10989 54.1334 6.10003 54.1334H43.4334C44.4235 54.1334 45.3731 53.74 46.0732 53.0399C46.7734 52.3398 47.1667 51.3902 47.1667 50.4V46.6667M47.1667 31.7334H32.2334C30.2531 31.7334 28.3539 32.52 26.9536 33.9203C25.5534 35.3206 24.7667 37.2197 24.7667 39.2C24.7667 41.1803 25.5534 43.0795 26.9536 44.4798C28.3539 45.88 30.2531 46.6667 32.2334 46.6667H47.1667M47.1667 31.7334C49.147 31.7334 51.0462 32.52 52.4464 33.9203C53.8467 35.3206 54.6334 37.2197 54.6334 39.2C54.6334 41.1803 53.8467 43.0795 52.4464 44.4798C51.0462 45.88 49.147 46.6667 47.1667 46.6667M13.5667 24.2667V13.0667C13.5667 10.0963 14.7467 7.24751 16.8471 5.1471C18.9475 3.0467 21.7963 1.8667 24.7667 1.8667C27.7371 1.8667 30.5859 3.0467 32.6863 5.1471C34.7867 7.24751 35.9667 10.0963 35.9667 13.0667V24.2667M45.3 39.2H49.0334M37.8334 39.2H41.5667M30.3667 39.2H34.1" stroke="#929B92" stroke-width="3.73333"/>
</g>
<defs>
<clipPath id="clip0_855_5991">
<rect width="56" height="56" fill="white" transform="translate(0.5)"/>
</clipPath>
</defs>
</svg>
